# xmcd CD database file
#
# Track frame offsets:
#	150
#	10951
#	21038
#	29996
#	40374
#	52173
#	63033
#	74985
#	85648
#	95089
#	105446
#	118805
#	131364
#	143129
#	152942
#	163637
#	174392
#	182411
#	194191
#	204935
#	218775
#	230201
#	246533
#	259006
#	269174
#
# Disc length: 3758 seconds
#
# Revision: 0
# Processed by: cddbd v1.5.2PL0 Copyright (c) Steve Scherf et al.
# Submitted via: CDex 1.51
#
DISCID=820eac19
DTITLE=Varioust - Ambiance
DYEAR=1950
DGENRE=Jazz
TTITLE0=Andy Williams - Butterfly
TTITLE1=Guy Mitchell - Rock-a-Billy
TTITLE2=Lonnie Donegan - Cumberland Gap
TTITLE3=Tab Hunter - Young love
TTITLE4=Frankie Vaughan - Garden of Eden
TTITLE5=Tommy Steele - Singing the blues
TTITLE6=Johnnie Ray - Just walking in the rain
TTITLE7=Frankie Laine - Woman in love
TTITLE8=Doris Day - Whatever will be will be (Que sera sera)
TTITLE9=Frankie Lymon and The Teenagers - Why do fools fall in love
TTITLE10=Kay Starr - Rock and roll waltz
TTITLE11=The Dream Weavers - It's almost tomorrow
TTITLE12=Tennessee Ernie Ford - Sixteen tons
TTITLE13=Bill Haley and The Comets - Rock around the clock (rock)
TTITLE14=Jimmy Young - The man from Laramie
TTITLE15=Rosemary Clooney - This ole house
TTITLE16=Alma Cogan - Dreamboat
TTITLE17=Jimmy Young - Unchained Melody
TTITLE18=Eddie Calvert - Cherry pink and apple blossom white
TTITLE19=Frank Sinatra - Three coins in the fountain
TTITLE20=Rosemary Clooney - Mambo italiano
TTITLE21=Doris Day - Secret love
TTITLE22=Eddie Calvert - Oh mein Papa
TTITLE23=Lita Roza - (How much is) That doggie in the window
TTITLE24=Perry Como - Don't let the stars get in your eyes
EXTD=YEAR: 1950
EXTT0=
EXTT1=
EXTT2=
EXTT3=
EXTT4=
EXTT5=
EXTT6=
EXTT7=
EXTT8=
EXTT9=
EXTT10=
EXTT11=
EXTT12=
EXTT13=
EXTT14=
EXTT15=
EXTT16=
EXTT17=
EXTT18=
EXTT19=
EXTT20=
EXTT21=
EXTT22=
EXTT23=
EXTT24=
PLAYORDER=
